<?xml version="1.0" encoding="UTF-8"?>
<svg id="pliki_eksport" data-name="pliki eksport" xmlns="http://www.w3.org/2000/svg" xmlns:xlink="http://www.w3.org/1999/xlink" viewBox="0 0 845.88 879.05">
  <defs>
    <style>
      .cls-1, .cls-2 {
        fill: #fff;
      }

      .cls-3 {
        fill: url(#Gradient_bez_nazwy_21);
        opacity: .57;
      }

      .cls-4 {
        letter-spacing: -.01em;
      }

      .cls-2 {
        font-family: ArialRoundedMTBold, 'Arial Rounded MT Bold';
        font-size: 72.61px;
      }

      .cls-5 {
        letter-spacing: 0em;
      }

      .cls-6 {
        letter-spacing: -.02em;
      }
    </style>
    <radialGradient id="Gradient_bez_nazwy_21" data-name="Gradient bez nazwy 21" cx="422.94" cy="439.53" fx="422.94" fy="439.53" r="431.31" gradientTransform="translate(-16.58 862.47) rotate(-90)" gradientUnits="userSpaceOnUse">
      <stop offset=".01" stop-color="#000" stop-opacity=".7"/>
      <stop offset="1" stop-color="#000" stop-opacity="0"/>
    </radialGradient>
  </defs>
  <rect class="cls-3" x="-16.58" y="16.58" width="879.05" height="845.88" rx="422.94" ry="422.94" transform="translate(862.47 16.58) rotate(90)"/>
  <g>
    <path class="cls-1" d="m429.44,304.74c-52.09,0-94.32,42.23-94.32,94.32h0c0,52.09,42.23,94.32,94.32,94.32s94.32-42.23,94.32-94.32h0c0-52.09-42.23-94.32-94.32-94.32Zm34.6,131.38c0,4.22-1.1,7.38-3.3,9.47-2.2,2.09-5.02,3.13-8.48,3.13s-6.31-1.06-8.4-3.17c-2.09-2.11-3.14-5.26-3.14-9.43v-5.13c0-7.37-3.72-13.34-12.03-13.34-8.37,1.39-10.56,5.66-10.56,27.38v5.13c0,4.22-1.1,7.38-3.3,9.47-2.2,2.09-5.02,3.13-8.48,3.13s-6.31-1.06-8.4-3.17c-2.09-2.11-3.14-5.26-3.14-9.43v-88.32c0-4.18,1.03-7.31,3.1-9.4,2.07-2.09,4.88-3.13,8.44-3.13s6.34,1.03,8.52,3.1c2.17,2.07,3.26,5.21,3.26,9.43v25.63c0,7.37,2.25,13.34,10.56,13.34s12.03-4.29,12.03-13.34v-3.3c0-4.18,1.06-7.31,3.18-9.4,2.12-2.09,4.9-3.13,8.36-3.13s6.34,1.03,8.52,3.1c2.17,2.07,3.26,5.21,3.26,9.43v51.95Zm-11.55-77.66c-6.38,0-11.55-5.17-11.55-11.55s5.17-11.55,11.55-11.55,11.55,5.17,11.55,11.55-5.17,11.55-11.55,11.55Z"/>
    <text class="cls-2" transform="translate(286.21 579.69)"><tspan x="0" y="0">hi</tspan><tspan class="cls-6" x="63.54" y="0">r</tspan><tspan class="cls-5" x="93.53" y="0">esl</tspan><tspan class="cls-4" x="195.72" y="0">a</tspan><tspan x="237.91" y="0">b</tspan></text>
  </g>
</svg>